<svg width="455" height="139" viewBox="0 0 455 139" fill="none" xmlns="http://www.w3.org/2000/svg">
<path d="M173.96 82.6155C173.96 80.5324 172.156 78.7889 170.013 78.7889H134.276C132.155 78.7889 130.346 80.5324 130.346 82.6155C130.346 84.6816 132.11 86.3797 134.276 86.3797H147.991V127.481C147.991 129.728 149.857 131.551 152.153 131.551C154.455 131.551 156.315 129.728 156.315 127.481V86.3797H170.013C172.196 86.3797 173.96 84.6816 173.96 82.6155Z" fill="#2C2E35"/>
<path fill-rule="evenodd" clip-rule="evenodd" d="M204.76 110.975C204.76 113.052 203.029 114.75 200.88 114.75H174.792C175.928 120.943 180.504 124.866 186.77 124.866C190.655 124.866 193.884 123.609 196.938 120.864C197.707 120.241 198.493 119.947 199.342 119.947C201.406 119.947 203.074 121.532 203.074 123.479C203.074 124.509 202.599 125.449 201.808 126.134C197.425 130.209 192.742 132.037 186.623 132.037C175.114 132.037 166.422 123.275 166.422 111.643V111.484C166.422 100.038 174.973 91.0779 185.893 91.0779C198.279 91.0779 204.76 101.08 204.76 110.975ZM174.792 108.28H196.491C195.66 103.152 192.487 98.0969 185.746 98.0969C180.266 98.0969 175.917 102.229 174.792 108.28Z" fill="#2C2E35"/>
<path d="M213.91 76.2926C211.676 76.2926 209.889 78.0643 209.889 80.255V127.571C209.889 129.796 211.676 131.551 213.978 131.551C216.268 131.551 218.004 129.824 218.004 127.571V80.255C218.004 78.0643 216.155 76.2926 213.91 76.2926Z" fill="#2C2E35"/>
<path d="M246.14 109.361L257.762 98.2611C258.548 97.5083 259.244 96.6309 259.244 95.2667C259.244 93.1667 257.575 91.4968 255.443 91.4968C254.244 91.4968 253.255 91.9666 252.321 92.9572L233.868 111.224V80.255C233.868 78.0643 232.036 76.2926 229.785 76.2926C227.579 76.2926 225.764 78.0643 225.764 80.255V127.571C225.764 129.796 227.562 131.551 229.87 131.551C232.149 131.551 233.868 129.824 233.868 127.571V120.971L240.4 114.694L252.717 129.796C253.673 131.024 254.691 131.551 256.111 131.551C258.35 131.551 260.052 129.915 260.052 127.769C260.052 126.807 259.764 126.077 259.051 125.183L246.14 109.361Z" fill="#2C2E35"/>
<path fill-rule="evenodd" clip-rule="evenodd" d="M302.768 111.422V111.552C302.768 123.054 293.476 132.037 281.617 132.037C269.882 132.037 260.692 123.105 260.692 111.705V111.552C260.692 100.072 269.944 91.0779 281.769 91.0779C293.533 91.0779 302.768 100.005 302.768 111.422ZM268.937 111.552C268.937 118.945 274.587 124.724 281.769 124.724C289.02 124.724 294.522 119.12 294.522 111.705V111.552C294.522 104.131 288.839 98.3064 281.617 98.3064C274.4 98.3064 268.937 103.956 268.937 111.422V111.552Z" fill="#2C2E35"/>
<path d="M352.343 91.0779C346.846 91.0779 342.486 93.1496 339.093 97.4063C336.378 93.3081 332.08 91.0779 326.769 91.0779C321.487 91.0779 318.094 93.2459 315.719 95.7648V95.4704C315.719 93.2459 313.903 91.4968 311.619 91.4968C309.39 91.4968 307.581 93.2742 307.581 95.4704V127.571C307.581 129.796 309.39 131.551 311.686 131.551C313.977 131.551 315.719 129.824 315.719 127.571V108.931C315.719 102.857 319.638 98.4535 325.061 98.4535C330.508 98.4535 333.635 102.031 333.635 108.269V127.571C333.635 129.796 335.388 131.551 337.65 131.551C339.935 131.551 341.739 129.796 341.739 127.571V108.693C341.739 102.574 345.449 98.4535 350.946 98.4535C356.517 98.4535 359.582 101.986 359.582 108.422V127.571C359.582 129.796 361.392 131.551 363.671 131.551C365.916 131.551 367.703 129.796 367.703 127.571V107.125C367.703 97.2195 361.827 91.0779 352.343 91.0779Z" fill="#2C2E35"/>
<path d="M132.563 65.4301C131.567 64.7226 130.855 63.5112 130.855 62.0904C130.855 59.8092 132.704 58.0318 134.978 58.0318C136.188 58.0318 136.968 58.3884 137.539 58.8186C141.657 62.0904 146.062 63.9357 151.463 63.9357C156.864 63.9357 160.274 61.3772 160.274 57.6809V57.5337C160.274 53.9789 158.289 52.06 149.048 49.9259C138.461 47.3674 132.489 44.2371 132.489 35.0614V34.9199C132.489 26.3838 139.598 20.4799 149.472 20.4799C155.727 20.4799 160.772 22.1158 165.251 25.1045C166.246 25.6706 167.168 26.8819 167.168 28.5857C167.168 30.8613 165.319 32.6443 163.045 32.6443C162.197 32.6443 161.484 32.4292 160.772 31.999C156.937 29.5141 153.239 28.2348 149.331 28.2348C144.218 28.2348 141.232 30.8613 141.232 34.1331V34.2802C141.232 38.1181 143.506 39.8276 153.097 42.1031C163.617 44.6616 169.017 48.4316 169.017 56.6846V56.8261C169.017 66.1434 161.699 71.6907 151.254 71.6907C144.501 71.6907 138.105 69.5567 132.563 65.4301Z" fill="#2C2E35"/>
<path d="M179.819 25.1724C179.819 22.7553 181.737 20.8364 184.225 20.8364C186.64 20.8364 188.557 22.7553 188.557 25.1724V66.998C188.557 69.4151 186.64 71.334 184.225 71.334C181.737 71.334 179.819 69.4151 179.819 66.998V25.1724Z" fill="#2C2E35"/>
<path fill-rule="evenodd" clip-rule="evenodd" d="M201.847 25.6025C201.847 23.1119 203.764 21.193 206.253 21.193H221.46C233.11 21.193 240.36 27.8045 240.36 37.8349V37.9765C240.36 49.1447 231.408 54.975 220.465 54.975H210.585V66.998C210.585 69.415 208.668 71.334 206.253 71.334C203.764 71.334 201.847 69.415 201.847 66.998V25.6025ZM220.748 47.0786C227.359 47.0786 231.481 43.3823 231.481 38.1916V38.0501C231.481 32.214 227.285 29.1574 220.748 29.1574H210.585V47.0786H220.748Z" fill="#2C2E35"/>
<path d="M249.313 25.1724C249.313 22.7553 251.23 20.8364 253.718 20.8364C256.139 20.8364 258.056 22.7553 258.056 25.1724V63.013H280.582C282.782 63.013 284.557 64.7904 284.557 66.998C284.557 69.2 282.782 70.9774 280.582 70.9774H253.718C251.23 70.9774 249.313 69.0585 249.313 66.5678V25.1724Z" fill="#2C2E35"/>
<path fill-rule="evenodd" clip-rule="evenodd" d="M289.817 60.1658V60.0243C289.817 51.9184 296.145 47.9334 305.307 47.9334C309.503 47.9334 312.489 48.5731 315.402 49.5014V48.5731C315.402 43.2409 312.133 40.3936 306.093 40.3936C302.824 40.3936 300.121 40.9653 297.78 41.888C297.282 42.0295 296.852 42.1031 296.428 42.1031C294.437 42.1031 292.803 40.5351 292.803 38.5426C292.803 36.9803 293.872 35.6274 295.15 35.1293C298.702 33.7821 302.327 32.9274 307.23 32.9274C312.84 32.9274 317.036 34.4217 319.666 37.1218C322.437 39.8276 323.715 43.8069 323.715 48.7146V67.2075C323.715 69.5567 321.866 71.3341 319.525 71.3341C317.036 71.3341 315.328 69.6246 315.328 67.7057V66.2849C312.772 69.3415 308.864 71.7586 303.107 71.7586C296.072 71.7586 289.817 67.7057 289.817 60.1658ZM315.543 57.4658V54.9072C313.338 54.0525 310.425 53.4128 307.015 53.4128C301.473 53.4128 298.204 55.7563 298.204 59.6677V59.8092C298.204 63.4376 301.399 65.5037 305.522 65.5037C311.206 65.5037 315.543 62.2319 315.543 57.4658Z" fill="#2C2E35"/>
<path d="M334.02 22.9704C334.02 20.6213 335.863 18.7024 338.284 18.7024C340.699 18.7024 342.616 20.6213 342.616 22.9704V39.1879C345.031 35.701 348.514 32.6443 354.339 32.6443C362.8 32.6443 367.703 38.3331 367.703 47.0107V67.066C367.703 69.483 365.854 71.334 363.439 71.334C361.018 71.334 359.101 69.483 359.101 67.066V49.6429C359.101 43.8068 356.189 40.4671 351.071 40.4671C346.099 40.4671 342.616 43.9484 342.616 49.7844V67.066C342.616 69.483 340.699 71.334 338.284 71.334C335.937 71.334 334.02 69.483 334.02 67.066V22.9704Z" fill="#2C2E35"/>
<path d="M379.461 126.292C380.931 126.292 382.034 127.396 382.034 128.834V129.202C382.034 130.634 380.931 131.738 379.461 131.738C377.956 131.738 376.854 130.634 376.854 129.202V128.834C376.854 127.396 377.956 126.292 379.461 126.292Z" fill="#2C2E35"/>
<path d="M383.538 121.956V121.883C383.538 116.364 387.803 111.728 393.645 111.728C396.698 111.728 398.791 112.724 400.442 114.156C400.736 114.416 401.144 114.965 401.144 115.701C401.144 116.845 400.222 117.722 399.085 117.722C398.531 117.722 398.056 117.501 397.762 117.286C396.619 116.33 395.375 115.628 393.611 115.628C390.376 115.628 387.989 118.424 387.989 121.809V121.883C387.989 125.335 390.376 128.098 393.792 128.098C395.556 128.098 396.913 127.396 398.129 126.366C398.384 126.145 398.825 125.89 399.34 125.89C400.408 125.89 401.251 126.773 401.251 127.837C401.251 128.426 401.031 128.907 400.629 129.236C398.898 130.888 396.806 131.992 393.571 131.992C387.803 131.992 383.538 127.469 383.538 121.956Z" fill="#2C2E35"/>
<path fill-rule="evenodd" clip-rule="evenodd" d="M402.128 121.956V121.883C402.128 116.33 406.539 111.728 412.494 111.728C418.443 111.728 422.815 116.256 422.815 121.809V121.883C422.815 127.396 418.409 131.992 412.42 131.992C406.505 131.992 402.128 127.469 402.128 121.956ZM418.37 121.956V121.883C418.37 118.458 415.91 115.628 412.42 115.628C408.857 115.628 406.578 118.424 406.578 121.809V121.883C406.578 125.262 409.038 128.098 412.494 128.098C416.091 128.098 418.37 125.301 418.37 121.956Z" fill="#2C2E35"/>
<path d="M425.496 114.156C425.496 112.905 426.452 111.914 427.701 111.914C428.951 111.914 429.941 112.905 429.941 114.156V115.079C431.191 113.346 432.882 111.728 435.856 111.728C438.65 111.728 440.635 113.092 441.665 115.152C443.208 113.092 445.267 111.728 448.202 111.728C452.432 111.728 455 114.416 455 119.16V129.53C455 130.781 454.05 131.738 452.8 131.738C451.55 131.738 450.555 130.781 450.555 129.53V120.518C450.555 117.428 449.124 115.775 446.624 115.775C444.198 115.775 442.473 117.467 442.473 120.592V129.53C442.473 130.781 441.478 131.738 440.268 131.738C439.018 131.738 438.028 130.781 438.028 129.53V120.484C438.028 117.467 436.558 115.775 434.092 115.775C431.632 115.775 429.941 117.614 429.941 120.592V129.53C429.941 130.781 428.951 131.738 427.701 131.738C426.485 131.738 425.496 130.781 425.496 129.53V114.156Z" fill="#2C2E35"/>
<path d="M31.8115 138.275C33.6156 134.936 34.6335 131.143 34.6335 127.113C34.6335 113.692 23.3453 102.807 9.42172 102.807C6.17552 102.807 3.06505 103.401 0.226032 104.482C-0.000184181 107.805 1.84348 111.858 1.79823 111.727C3.69845 110.98 5.77398 110.573 7.95697 110.573C16.9208 110.573 24.1823 117.507 24.1823 126.049C24.1823 129.298 23.1361 132.309 21.3433 134.805C25.1098 136.832 26.9365 137.387 31.8115 138.275Z" fill="#FF3818"/>
<path d="M92.3019 33.8953H85.5833C84.6049 33.8953 83.8131 33.0971 83.8131 32.1178V21.7987C83.8131 15.4306 78.6554 10.2682 72.2931 10.2682H45.051C38.6887 10.2682 33.5309 15.4306 33.5309 21.7987V32.1178C33.5309 33.0971 32.7392 33.8953 31.7608 33.8953H25.0422C24.0638 33.8953 23.2664 33.0971 23.2664 32.1178V21.7987C23.2664 9.75875 33.0219 0 45.051 0H72.2931C84.3221 0 94.072 9.75875 94.072 21.7987V32.1178C94.072 33.0971 93.2803 33.8953 92.3019 33.8953Z" fill="#FF3818"/>
<path d="M117.14 96.048L111.864 44.1522C111.468 40.2691 108.199 37.3199 104.303 37.3199H13.0187C9.11651 37.3199 5.85334 40.2691 5.45746 44.1522L0.180968 96.048C0.0678604 97.1121 0.0169662 98.1706 0 99.2235C0.180973 94.1234 1.54958 89.1987 4.24721 84.9476C5.56492 82.8702 8.99209 79.7796 9.48977 93.2743C9.87434 100.78 13.0018 99.2971 16.5816 90.9252C21.5754 79.2645 23.6566 75.0983 26.9932 76.0323C29.3798 76.7003 29.0066 82.2532 27.0837 92.8667C25.6529 100.854 28.2657 99.3084 31.116 96.4385C33.972 93.5743 46.182 79.0437 50.1691 81.6702C53.5906 83.9231 47.4488 92.2611 43.3656 98.4367C38.7339 105.456 37.156 110.262 44.4515 106.282C53.732 101.227 61.955 97.3272 63.8382 100.554C66.1682 104.561 51.1305 114.433 45.1697 119.001C40.8773 122.29 36.0928 126.258 41.4598 127.815C47.5676 129.587 53.2909 127.322 56.4636 131.641C58.0527 133.804 55.5021 135.366 54.4502 135.887C50.2087 138.004 45.034 139.006 39.684 139H78.3726C101.452 139 119.482 119.03 117.14 96.048Z" fill="#FF3818"/>
</svg>
